<?xml version="1.0" standalone="no"?><!DOCTYPE svg PUBLIC "-//W3C//DTD SVG 1.1//EN" "http://www.w3.org/Graphics/SVG/1.1/DTD/svg11.dtd"><svg t="1721749869153" class="icon" viewBox="0 0 1024 1024" version="1.1" xmlns="http://www.w3.org/2000/svg" p-id="19593" xmlns:xlink="http://www.w3.org/1999/xlink" width="48" height="48"><path d="M866.112 994.984h-678.8c-85.856 0-155.464-69.6-155.464-155.448V628.808H7.12v-44.544h24.728V470.432H7.12v-44.536h24.728V317.04H7.12v-44.544h24.728V160.728C31.848 74.872 101.456 5.28 187.312 5.28h678.8c85.848 0 155.44 69.592 155.44 155.448v678.808c-0.008 85.848-69.592 155.448-155.44 155.448z m120.8-810.496c0-79.832-64.712-144.576-144.568-144.576H211.072c-79.856 0-144.576 64.736-144.576 144.576v88.008h44.544v44.544H66.504v108.848h44.544v44.536H66.504v113.824h44.544v44.544H66.504v186.976c0 79.832 64.72 144.576 144.576 144.576h631.272c79.856 0 144.568-64.744 144.568-144.576v-631.28z m-208.232 572.96H274.744c-27.568 0-49.896-22.416-49.896-50.08V386.912c0-27.664 22.336-50.072 49.896-50.072h113.4v-39.584a49.496 49.496 0 0 1 49.496-49.504h173.184a49.488 49.488 0 0 1 49.496 49.504v39.584h118.36c27.544 0 49.888 22.408 49.888 50.072v320.456c0 27.664-22.344 50.08-49.888 50.08z m35.056-359.264c0-25.696-21.248-46.536-47.44-46.536H645.056c0.28-2.072 0.464-4.168 0.464-6.32V308.56c0-25.392-19.728-45.976-44.096-45.976H447.064c-24.36 0-44.096 20.576-44.096 45.976v36.768c0 2.16 0.176 4.248 0.464 6.32H287.128c-26.2 0-47.44 20.84-47.44 46.536v297.88c0 25.696 21.24 46.528 47.44 46.528h479.168c26.184 0 47.44-20.832 47.44-46.528V398.184zM521.768 636.192c-53.64 0-97.112-43.368-97.112-96.848 0-53.504 43.472-96.856 97.112-96.856 53.624 0 97.096 43.344 97.096 96.856-0.008 53.488-43.472 96.848-97.096 96.848z" fill="#8A1D23" p-id="19594"></path></svg>