<?xml version="1.0" standalone="no"?><!DOCTYPE svg PUBLIC "-//W3C//DTD SVG 1.1//EN" "http://www.w3.org/Graphics/SVG/1.1/DTD/svg11.dtd"><svg t="1721463410758" class="icon" viewBox="0 0 1024 1024" version="1.1" xmlns="http://www.w3.org/2000/svg" p-id="10597" xmlns:xlink="http://www.w3.org/1999/xlink" width="48" height="48"><path d="M158.72 169.02144m135.68 0l435.10784 0q135.68 0 135.68 135.68l0 455.61856q0 135.68-135.68 135.68l-435.10784 0q-135.68 0-135.68-135.68l0-455.61856q0-135.68 135.68-135.68Z" fill="#D31B1B" p-id="10598"></path><path d="M294.4 169.02144h435.10784c74.93376 0 135.68 60.74624 135.68 135.68v166.4H158.72v-166.4c0-74.93376 60.74624-135.68 135.68-135.68z" fill="#FFC9C9" p-id="10599"></path><path d="M664.64256 221.43744m46.08 0l49.13408 0q46.08 0 46.08 46.08l0 49.13408q0 46.08-46.08 46.08l-49.13408 0q-46.08 0-46.08-46.08l0-49.13408q0-46.08 46.08-46.08Z" fill="#BA0303" p-id="10600"></path><path d="M303.9488 128h55.94112c19.79392 0 35.84 16.04608 35.84 35.84v5.18144H268.1088V163.84c0-19.79392 16.04608-35.84 35.84-35.84z" fill="#D31B1B" p-id="10601"></path><path d="M448.14336 754.70592h47.85664V896h-47.85664zM530.18368 754.70592h47.85664V896h-47.85664z" fill="#FFC9C9" p-id="10602"></path><path d="M513.09312 548.46208m-244.98432 0a244.98432 244.98432 0 1 0 489.96864 0 244.98432 244.98432 0 1 0-489.96864 0Z" fill="#BA0303" p-id="10603"></path><path d="M513.09312 548.46208m-176.61696 0a176.61696 176.61696 0 1 0 353.23392 0 176.61696 176.61696 0 1 0-353.23392 0Z" fill="#D31B1B" p-id="10604"></path></svg>